<svg class="icon" width="200px" height="200.00px" viewBox="0 0 1024 1024" version="1.1" xmlns="http://www.w3.org/2000/svg"><path d="M512 128c212.064 0 384 171.936 384 384s-171.936 384-384 384S128 724.064 128 512 299.936 128 512 128z m0 64C335.264 192 192 335.264 192 512s143.264 320 320 320 320-143.264 320-320S688.736 192 512 192z m176.128 200.448V672h-40.704v-21.12c-13.824 17.664-33.792 26.496-59.904 26.496-29.568 0-52.608-10.368-69.12-31.104-15.36-19.2-23.04-44.16-23.04-74.496 0-29.184 7.296-53.376 22.656-72.576 16.128-20.736 38.784-31.104 67.2-31.104 23.04 0 42.624 10.752 59.136 32.64v-108.288h43.776z m-277.248 5.376V672h-44.928v-220.032c-16.512 14.976-37.248 26.112-62.592 33.408v-44.544a162.88 162.88 0 0 0 39.168-16.128 171.2 171.2 0 0 0 34.56-26.88h33.792z m184.704 105.6c-19.968 0-34.176 6.528-43.392 19.584-8.064 11.136-11.904 27.264-11.904 48.768s3.456 38.016 11.136 49.536c8.832 13.824 23.04 20.736 42.624 20.736 16.896 0 30.336-6.912 39.552-20.352 8.064-12.288 12.288-28.416 12.288-47.616v-3.072c0-21.12-5.376-38.016-15.36-50.304-9.216-11.52-21.12-17.28-34.944-17.28z" /></svg>