<svg class="icon" width="200px" height="200.00px" viewBox="0 0 1024 1024" version="1.1" xmlns="http://www.w3.org/2000/svg"><path d="M542.464 135.488C586.624 158.976 629.76 175.04 672 183.68c30.72 6.272 61.952 8.832 93.664 7.68A64 64 0 0 1 832 252.96L832 517.152c0 115.776-60.736 223.04-160 282.656l-127.04 76.256a64 64 0 0 1-65.92 0L352 799.808a329.664 329.664 0 0 1-160-282.656V255.808a64 64 0 0 1 64-64h2.144c30.816 1.056 62.08-1.664 93.856-8.16a470.88 470.88 0 0 0 129.984-47.936 64 64 0 0 1 60.48-0.224zM512.384 192a534.784 534.784 0 0 1-147.552 54.368c-36.64 7.488-72.96 10.656-108.832 9.44v261.344a265.664 265.664 0 0 0 128.96 227.776L512 821.184l127.04-76.256A265.664 265.664 0 0 0 768 517.12V255.296a458.24 458.24 0 0 1-108.8-8.96c-48.48-9.92-97.408-28.096-146.784-54.336z m149.248 151.808l45.28 45.248-226.272 226.272-135.776-135.744 45.248-45.248L480.64 524.8l181.024-181.024z" /></svg>