<svg class="icon" width="200px" height="200.00px" viewBox="0 0 1024 1024" version="1.1" xmlns="http://www.w3.org/2000/svg"><path d="M542.464 135.488C586.624 158.976 629.76 175.04 672 183.68c30.72 6.272 61.952 8.832 93.664 7.68A64 64 0 0 1 832 252.96l0.032 2.336v261.856c0 115.776-60.736 223.04-160 282.656l-127.04 76.256a64 64 0 0 1-65.92 0L352 799.808a329.664 329.664 0 0 1-160-282.656V255.808a64 64 0 0 1 64-64h2.144c30.816 1.056 62.08-1.664 93.856-8.16a470.88 470.88 0 0 0 129.984-47.936 64 64 0 0 1 60.48-0.224zM512.384 192a534.784 534.784 0 0 1-147.552 54.368c-36.64 7.488-72.96 10.656-108.832 9.44v261.344a265.664 265.664 0 0 0 128.96 227.776L512 821.184l127.04-76.256A265.664 265.664 0 0 0 768 517.12V255.296a458.24 458.24 0 0 1-108.8-8.96c-48.48-9.92-97.408-28.096-146.784-54.336zM512 288c51.904 0 96 39.68 96 92V416h28.992c19.328 0 35.008 16.704 35.008 37.312v181.376c0 20.608-15.68 37.312-35.008 37.312h-249.984C367.68 672 352 655.296 352 634.688v-181.376c0-20.608 15.68-37.312 35.008-37.312H416v-36C416 327.68 460.096 288 512 288z m96 192h-192v128h192v-128z m-96-128.992c-22.304 0-38.4 14.464-38.4 28.992L473.568 416H550.4v-36c0-14.528-16.096-28.992-38.4-28.992z" /></svg>