<svg class="icon" width="200px" height="200.00px" viewBox="0 0 1024 1024" version="1.1" xmlns="http://www.w3.org/2000/svg"><path d="M480 160v64H256v576h512V480h64v320a64 64 0 0 1-64 64H256a64 64 0 0 1-64-64V224a64 64 0 0 1 64-64h224z m272.32 18.4l45.28 45.28a64 64 0 0 1 0 90.496l-279.072 279.072a64 64 0 0 1-36.224 18.112l-58.08 8.288a60 60 0 0 1-67.872-50.912c-0.544-3.744 2.24-28.768 8.32-75.04a64 64 0 0 1 18.08-36.224l279.072-279.04a64 64 0 0 1 90.496 0zM707.072 223.68l-279.04 279.04-7.552 52.8 52.8-7.52 279.04-279.072-45.248-45.248z" /></svg>