<svg class="icon" width="200px" height="200.00px" viewBox="0 0 1024 1024" version="1.1" xmlns="http://www.w3.org/2000/svg"><path d="M159.328 670.432a64 64 0 0 1 0-90.496L521.056 218.176a64 64 0 0 1 52.224-18.368l203.968 22.304a64 64 0 0 1 56.64 56.64l22.336 204a64 64 0 0 1-18.368 52.192L476.096 896.704a64 64 0 0 1-90.496 0l-226.272-226.24z m45.248-45.248l226.24 226.272 361.28-361.248-21.76-204.512-204.544-21.76L204.576 625.184z m338.208-111.936a96.096 96.096 0 0 1 0-135.744 96.096 96.096 0 0 1 135.744 0 96.096 96.096 0 0 1 0 135.744 96.096 96.096 0 0 1-135.744 0z m45.248-45.248a32.032 32.032 0 0 0 45.248-45.248 32.032 32.032 0 0 0-45.248 45.248z" /></svg>