<svg class="icon" width="200px" height="200.00px" viewBox="0 0 1024 1024" version="1.1" xmlns="http://www.w3.org/2000/svg"><path d="M512 128c212.064 0 384 171.936 384 384s-171.936 384-384 384S128 724.064 128 512 299.936 128 512 128z m0 64C335.264 192 192 335.264 192 512s143.264 320 320 320 320-143.264 320-320S688.736 192 512 192z m38.88 120c43.072 0 77.056 8.448 101.792 25.568 25.44 17.6 38.336 42.496 38.336 73.888 0 36.128-19.104 63.296-56.128 80.992 8.64 3.2 16.256 6.624 22.88 10.24 35.904 19.136 54.24 48.512 54.24 87.136 0 37.44-15.904 67.616-47.232 89.76-30.688 21.664-71.36 32.416-121.92 32.416-15.328 0-34.144-0.704-56.416-2.112l-28.352-1.856a746.496 746.496 0 0 0-42.4-1.728c-10.816 0-20.992 0.576-30.528 1.664l-38.784 4.032c-21.632-0.48-34.368-10.272-34.368-28.48 0-16.608 10.048-26.144 27.136-26.144 17.856 1.92 27.712 2.848 29.632 2.848 16 0 23.488-10.016 23.488-34.048v-228.352c0-24.416-7.52-34.592-23.488-34.592-2.176 0-27.104 2.816-29.632 2.816-17.088 0-27.136-9.536-27.136-26.176 0-18.4 13.536-27.872 36.384-27.872l39.36 4.032c4.544 0.64 15.936 1.152 34.112 1.664 15.392 0 37.44-1.152 66.048-3.392a809.024 809.024 0 0 1 62.976-2.304z m-12.32 211.424h-51.264c-19.168 0-28.992 3.488-30.72 8.32-1.28 3.52-2.016 10.08-2.016 19.456v63.04c0 22.08 3.84 34.88 9.824 38.688 7.264 4.544 31.168 7.296 69.856 7.296 73.024 0 107.424-23.68 107.424-71.552 0-43.52-32.928-65.28-103.104-65.28z m0-160.192l-15.424 0.128c-31.552 0.544-51.456 2.816-58.432 6.4-6.368 3.2-10.144 13.12-10.144 30.912v35.2c0 18.144 1.76 29.376 4.032 32.128 1.824 2.208 10.88 4.16 26.24 4.16h34.56c69.024 0 101.28-19.264 101.28-57.28 0-34.496-25.92-51.648-82.112-51.648z" /></svg>