<?xml version="1.0" encoding="utf-8"?>
<svg version="1.1" xmlns:xlink="http://www.w3.org/1999/xlink" width="15px" height="12px" xmlns="http://www.w3.org/2000/svg">
  <g transform="matrix(1 0 0 1 -66 -147 )">
    <path d="M 4.67013888888889 10.5852272727273  C 4.8900462962963 10.3693181818182  5 10.1136363636364  5 9.81818181818182  C 5 9.52272727272727  4.8900462962963 9.26704545454545  4.67013888888889 9.05113636363636  C 4.45023148148148 8.83522727272727  4.18981481481481 8.72727272727273  3.88888888888889 8.72727272727273  C 3.58796296296296 8.72727272727273  3.3275462962963 8.83522727272727  3.10763888888889 9.05113636363636  C 2.88773148148148 9.26704545454545  2.77777777777778 9.52272727272727  2.77777777777778 9.81818181818182  C 2.77777777777778 10.1136363636364  2.88773148148148 10.3693181818182  3.10763888888889 10.5852272727273  C 3.3275462962963 10.8011363636364  3.58796296296296 10.9090909090909  3.88888888888889 10.9090909090909  C 4.18981481481481 10.9090909090909  4.45023148148148 10.8011363636364  4.67013888888889 10.5852272727273  Z M 1.66666666666667 5.19886363636364  L 1.66666666666667 5.45454545454546  L 5 5.45454545454546  L 5 3.27272727272727  L 3.62847222222222 3.27272727272727  C 3.55324074074074 3.27272727272727  3.48958333333333 3.29829545454546  3.4375 3.34943181818182  L 1.74479166666667 5.01136363636364  C 1.69270833333333 5.0625  1.66666666666667 5.125  1.66666666666667 5.19886363636364  Z M 12.4479166666667 10.5852272727273  C 12.6678240740741 10.3693181818182  12.7777777777778 10.1136363636364  12.7777777777778 9.81818181818182  C 12.7777777777778 9.52272727272727  12.6678240740741 9.26704545454545  12.4479166666667 9.05113636363636  C 12.2280092592593 8.83522727272727  11.9675925925926 8.72727272727273  11.6666666666667 8.72727272727273  C 11.3657407407407 8.72727272727273  11.1053240740741 8.83522727272727  10.8854166666667 9.05113636363636  C 10.6655092592593 9.26704545454545  10.5555555555556 9.52272727272727  10.5555555555556 9.81818181818182  C 10.5555555555556 10.1136363636364  10.6655092592593 10.3693181818182  10.8854166666667 10.5852272727273  C 11.1053240740741 10.8011363636364  11.3657407407407 10.9090909090909  11.6666666666667 10.9090909090909  C 11.9675925925926 10.9090909090909  12.2280092592593 10.8011363636364  12.4479166666667 10.5852272727273  Z M 14.8350694444444 0.161931818181819  C 14.9450231481481 0.269886363636362  15 0.397727272727272  15 0.545454545454545  L 15 9.27272727272727  C 15 9.35795454545455  14.9884259259259 9.43323863636363  14.9652777777778 9.49857954545455  C 14.9421296296296 9.56392045454546  14.9030671296296 9.61647727272727  14.8480902777778 9.65625  C 14.7931134259259 9.69602272727273  14.7453703703704 9.72869318181818  14.7048611111111 9.75426136363636  C 14.6643518518519 9.77982954545455  14.5963541666667 9.796875  14.5008680555556 9.80539772727273  C 14.4053819444444 9.81392045454546  14.3402777777778 9.81960227272727  14.3055555555556 9.82244318181818  C 14.2708333333333 9.82528409090909  14.1970486111111 9.82528409090909  14.0842013888889 9.82244318181818  C 13.9713541666667 9.81960227272727  13.90625 9.81818181818182  13.8888888888889 9.81818181818182  C 13.8888888888889 10.4204545454545  13.671875 10.9346590909091  13.2378472222222 11.3607954545455  C 12.8038194444444 11.7869318181818  12.2800925925926 12  11.6666666666667 12  C 11.0532407407407 12  10.5295138888889 11.7869318181818  10.0954861111111 11.3607954545455  C 9.66145833333333 10.9346590909091  9.44444444444444 10.4204545454545  9.44444444444444 9.81818181818182  L 6.11111111111111 9.81818181818182  C 6.11111111111111 10.4204545454545  5.89409722222222 10.9346590909091  5.46006944444444 11.3607954545455  C 5.02604166666667 11.7869318181818  4.50231481481482 12  3.88888888888889 12  C 3.27546296296296 12  2.75173611111111 11.7869318181818  2.31770833333333 11.3607954545455  C 1.88368055555556 10.9346590909091  1.66666666666667 10.4204545454545  1.66666666666667 9.81818181818182  L 1.11111111111111 9.81818181818182  C 1.09375 9.81818181818182  1.02864583333333 9.81960227272727  0.915798611111111 9.82244318181818  C 0.802951388888889 9.82528409090909  0.729166666666667 9.82528409090909  0.694444444444444 9.82244318181818  C 0.659722222222222 9.81960227272727  0.594618055555556 9.81392045454546  0.499131944444444 9.80539772727273  C 0.403645833333333 9.796875  0.335648148148148 9.77982954545455  0.295138888888889 9.75426136363636  C 0.25462962962963 9.72869318181818  0.206886574074074 9.69602272727273  0.151909722222222 9.65625  C 0.0969328703703704 9.61647727272727  0.0578703703703704 9.56392045454546  0.0347222222222222 9.49857954545455  C 0.0115740740740742 9.43323863636363  0 9.35795454545455  0 9.27272727272727  C 0 9.125  0.0549768518518519 8.99715909090909  0.164930555555556 8.88920454545455  C 0.274884259259259 8.78125  0.405092592592593 8.72727272727273  0.555555555555556 8.72727272727273  L 0.555555555555556 6  C 0.555555555555556 5.95454545454546  0.554108796296296 5.85511363636364  0.551215277777778 5.70170454545455  C 0.548321759259259 5.54829545454546  0.548321759259259 5.44034090909091  0.551215277777778 5.37784090909091  C 0.554108796296296 5.31534090909091  0.561342592592593 5.21732954545455  0.572916666666667 5.08380681818182  C 0.584490740740741 4.95028409090909  0.603298611111111 4.84517045454546  0.629340277777778 4.76846590909091  C 0.655381944444444 4.69176136363636  0.695891203703704 4.60511363636363  0.750868055555556 4.50852272727273  C 0.805844907407407 4.41193181818182  0.870949074074074 4.32670454545455  0.946180555555556 4.25284090909091  L 2.66493055555556 2.56534090909091  C 2.77488425925926 2.45738636363636  2.92100694444445 2.36647727272727  3.10329861111111 2.29261363636364  C 3.28559027777778 2.21875  3.45486111111111 2.18181818181818  3.61111111111111 2.18181818181818  L 5 2.18181818181818  L 5 0.545454545454545  C 5 0.397727272727272  5.05497685185185 0.269886363636362  5.16493055555556 0.161931818181819  C 5.27488425925926 0.0539772727272716  5.40509259259259 0  5.55555555555556 0  L 14.4444444444444 0  C 14.5949074074074 0  14.7251157407407 0.0539772727272716  14.8350694444444 0.161931818181819  Z " fill-rule="nonzero" fill="#70b603" stroke="none" transform="matrix(1 0 0 1 66 147 )" />
  </g>
</svg>