<svg class="icon" width="200px" height="200.00px" viewBox="0 0 1024 1024" version="1.1" xmlns="http://www.w3.org/2000/svg"><path d="M640 160a64 64 0 0 1 64 64v64h96a64 64 0 0 1 63.84 59.2L864 672a64 64 0 0 1-59.2 63.84L704 736v64a64 64 0 0 1-64 64h-256a64 64 0 0 1-64-64v-64H224a64 64 0 0 1-63.84-59.2L160 352a64 64 0 0 1 59.2-63.84L320 288V224a64 64 0 0 1 64-64h256z m0 448h-256v192h256v-192z m160-256H224v320h96v-128h384v128h96V352z m-160-128h-256v64h256V224zM288 384h64v64H288v-64z m96 0h64v64h-64v-64z" /></svg>