<svg class="icon" width="200px" height="200.00px" viewBox="0 0 1024 1024" version="1.1" xmlns="http://www.w3.org/2000/svg"><path d="M514.88 160c125.376 0 226.88 102.56 226.88 228.928 0 18.72-3.456 38.816-10.336 60.352 31.68 4.96 59.072 24.448 71.424 52.672l88.544 249.28c16.672 47.104-13.056 95.904-63.168 109.28-4.32 1.152-13.184 2.336-26.56 3.488H222.304C171.136 864 128 826.496 128 777.856c0-6.784 0.864-13.536 2.592-20.128l88.32-250.176c11.648-32.928 43.136-55.36 79.2-59.008-6.72-21.248-10.112-41.12-10.112-59.616C288 262.56 389.504 160 514.88 160z m23.264 565.984a32 32 0 0 1-42.144 3.84l-3.744-3.2-0.64-0.64c-77.056-81.6-132.416-152.576-165.76-213.984h-17.184c-12.928 0-23.744 6.08-28.16 14.176C221.472 692.8 192 776.64 192 777.856c0 10.272 10.784 20.48 26.368 21.952 393.408-0.16 591.2-0.544 593.344-1.12 14.4-3.84 21.664-14.08 20.032-23.552l-87.008-246.208c-2.976-8.448-12.8-15.392-25.184-16.704L703.904 512c-33.344 61.408-88.704 132.384-165.76 213.984zM514.88 224C424.96 224 352 297.76 352 388.928c0 57.696 53.888 148.544 162.88 268.032 108.992-119.488 162.88-210.336 162.88-268.032C677.76 297.76 604.768 224 514.88 224zM512 320a64 64 0 1 1 0 128 64 64 0 0 1 0-128z" /></svg>