<svg class="icon" width="200px" height="200.00px" viewBox="0 0 1024 1024" version="1.1" xmlns="http://www.w3.org/2000/svg"><path d="M550.848 128l14.4 34.56H736a64 64 0 0 1 64 64v426.528c0 83.52-55.392 150.784-166.208 201.856-34.624 20.16-75.2 34.72-121.792 43.616H288a64 64 0 0 1-64-64v-608a64 64 0 0 1 64-64h172.192L475.136 128h75.712z m-118.304 98.56H288v608h211.84l12.16-3.456V652.8h224V226.56h-144.096l12.256 29.44h-184.32l12.704-29.44z m113.92 89.28l59.36 15.904-11.968 44.576H608v61.44h-65.28v30.72H608v61.44h-65.312l0.032 65.92h-61.44l-0.032-65.92H416v-61.44h65.28v-30.72H416v-61.44h21.536l-11.904-44.576 59.328-15.904 15.008 56h31.456l15.04-56z" /></svg>