<svg class="icon" width="200px" height="200.00px" viewBox="0 0 1024 1024" version="1.1" xmlns="http://www.w3.org/2000/svg"><path d="M488.307 0.102h47.079v111.953c45.502 0.02 90.983-0.04 136.444 0.02 15.482-0.02 30.86 9.605 36.37 24.247 2.989 7.126 2.293 14.99 2.334 22.546v280.876c-0.082 7.576 0.696 15.44-2.069 22.669-5.283 15.05-20.723 25.413-36.553 25.413-45.317 0.04-90.676 0.02-136.014 0-0.041 52.055-0.041 104.09 0 156.103h351.545c5.426 0.144 11.058-0.614 16.32 1.126 8.827 2.704 15.707 11.263 15.769 20.622 0.061 33.46-0.02 66.942 0.04 100.383 22.506 0.123 44.99-0.226 67.476 0.164 18.757 0.634 36.43 16.525 36.778 35.734 0.082 61.843 0.04 123.686 0.02 185.53 0.144 20.13-18.84 36.778-38.54 36.45-64.464 0.021-129.01-0.02-193.536 0.021-19.618 1.024-39.236-14.54-40.157-34.67-0.267-58.259-0.041-116.54-0.103-174.84 0.082-7.986-0.778-16.3 2.355-23.857 5.509-14.498 20.54-24.225 35.898-24.41 27.481-0.225 54.983-0.04 82.444-0.102 0.041-25.68 0.02-51.379 0.02-77.1h-336.35c0 25.7-0.04 51.42 0.02 77.1 22.936-0.02 45.85 0.02 68.786-0.02 21.768-2.335 44.437 15.379 43.516 38.11v172.997c0 7.638 0.553 15.666-2.56 22.915-5.795 14.682-21.44 24.328-37.106 23.877-65.14-0.082-130.301 0.061-195.421-0.082-19.188-0.45-37.31-16.894-37.147-36.553-0.041-57.645-0.02-115.332-0.02-172.977 0.122-7.74-0.8-15.789 2.15-23.14 5.55-15.093 21.297-25.209 37.229-25.086 24.307-0.143 48.614-0.02 72.942-0.061v-77.1c-109.332 0.041-218.623-0.04-327.954 0.041 0.02 25.68-0.02 51.38 0.02 77.059 25.188 0.123 50.396-0.246 75.584 0.164 19.454 0.798 37.25 17.897 36.676 37.802 0.082 60.471 0.041 120.963 0.02 181.434 1.025 20.806-18.122 38.765-38.498 38.458H38.591c-19.68 0.307-38.765-16.32-38.58-36.492 0-61.823-0.042-123.625 0.04-185.448 0.307-19.208 17.939-35.017 36.676-35.734 25.25-0.43 50.56-0.04 75.85-0.184 0.062-33.4-0.102-66.779 0.082-100.178 0-12.287 11.632-22.506 23.714-21.953h351.873V487.846c-45.994-0.082-91.967 0.123-137.92-0.102-19.494-0.614-37.024-17.857-36.532-37.618-0.102-100.526-0.143-201.073 0.02-301.62-0.184-20.089 18.533-36.717 38.171-36.43 45.42-0.103 90.861 0 136.281-0.041 0.041-37.29 0.02-74.58 0.041-111.933z m-95.53 186.636c-0.04 75.503-0.02 150.943-0.02 226.446h239.162V186.738H392.777zM79.178 840.907v108.615H193.67V840.907a106687.674 106687.674 0 0 0-114.492 0z m375.627 0.02c0.062 36.226-0.02 72.41 0.041 108.615h114.472c0.04-36.205-0.02-72.41 0.02-108.635-38.17-0.02-76.342-0.062-114.533 0.02z m375.71-0.04v108.655l114.758-0.02V840.907c-38.274-0.041-76.506-0.02-114.759-0.02z" /></svg>