<svg class="icon" width="200px" height="200.00px" viewBox="0 0 1024 1024" version="1.1" xmlns="http://www.w3.org/2000/svg"><path d="M469.92 170.592a90.304 90.304 0 0 1 84.352-0.288c37.12 19.488 73.152 32.672 108.064 39.712 20.96 4.224 42.24 6.4 63.84 6.432l12.992-0.224a89.408 89.408 0 0 1 92.416 80.64l0.384 5.44 0.032 2.656v232.416c0 110.624-57.024 213.344-150.816 272.928l-8.896 5.44-114.336 67.68a90.304 90.304 0 0 1-86.144 3.136l-5.76-3.136-114.336-67.68c-96.064-56.832-156-157.92-159.552-268.032L192 537.376v-115.968h64v115.968a259.584 259.584 0 0 0 120.448 218.464l7.84 4.832 114.368 67.68c7.168 4.256 15.968 4.8 23.52 1.6l3.168-1.6 114.368-67.68c76.96-45.568 125.024-126.304 128.128-214.176l0.16-9.12v-233.28a25.28 25.28 0 0 0-26.56-23.904 391.68 391.68 0 0 1-91.776-7.424c-41.088-8.32-82.784-23.584-125.12-45.76a26.304 26.304 0 0 0-24.512 0.064 463.68 463.68 0 0 1-111.424 42.56l-14.272 3.136-12.672-62.72a395.648 395.648 0 0 0 108.256-39.456z m-314.752 17.728L170.464 96C269.184 194.912 319.008 244.992 320 246.176l-6.272 58.304 178.56 178.624a64 64 0 1 1-41.088 40.896l-178.528-178.56L212.544 352 64 202.624l91.2-14.304z" /></svg>