<svg class="icon" width="200px" height="200.00px" viewBox="0 0 1024 1024" version="1.1" xmlns="http://www.w3.org/2000/svg"><path d="M512 224c184.736 0 340 122.368 384 288-44 165.632-199.264 288-384 288S172 677.632 128 512c44-165.632 199.264-288 384-288z m0 64c-147.008 0-274.464 92.544-317.28 224 42.816 131.456 170.24 224 317.28 224 147.008 0 274.464-92.544 317.28-224-42.816-131.456-170.24-224-317.28-224z m0 64a160 160 0 1 1 0 320 160 160 0 0 1 0-320z m0 64a96 96 0 1 0 0 192 96 96 0 0 0 0-192z" /></svg>