<svg class="icon" width="200px" height="200.00px" viewBox="0 0 1024 1024" version="1.1" xmlns="http://www.w3.org/2000/svg"><path d="M783.776 189.344a99.904 99.904 0 0 1 0 141.664 100.864 100.864 0 0 1-138.368 3.648l-177.12 101.824c17.056 26.144 26.944 57.344 26.944 90.816a165.76 165.76 0 0 1-29.888 95.2l193.44 111.2a117.248 117.248 0 0 1 87.872-39.424A117.12 117.12 0 0 1 864 811.136 117.12 117.12 0 0 1 746.656 928a117.12 117.12 0 0 1-116.16-133.408l-216.224-124.352a167.36 167.36 0 0 1-86.656 24C235.04 694.272 160 619.52 160 527.328c0-92.192 75.04-166.944 167.616-166.944 33.824 0 65.344 9.984 91.68 27.168l194.048-111.552a99.776 99.776 0 0 1 28.192-86.624 100.864 100.864 0 0 1 142.24 0z m-37.12 571.712c-27.776 0-50.272 22.4-50.272 50.08 0 27.648 22.496 50.08 50.272 50.08s50.304-22.4 50.304-50.08-22.528-50.08-50.304-50.08zM327.616 427.136a100.384 100.384 0 0 0-100.576 100.16 100.384 100.384 0 0 0 100.576 100.16 100.384 100.384 0 0 0 100.576-100.16 100.384 100.384 0 0 0-100.576-100.16zM688.96 236.576a33.28 33.28 0 0 0 0 47.2 33.6 33.6 0 0 0 47.392 0 33.28 33.28 0 0 0 0-47.2 33.6 33.6 0 0 0-47.392 0z" /></svg>