<svg class="icon" width="200px" height="200.00px" viewBox="0 0 1024 1024" version="1.1" xmlns="http://www.w3.org/2000/svg"><path d="M544 416a96 96 0 0 1 32 186.528V832h160v64H352v-64h160v-229.44A96.032 96.032 0 0 1 544 416z m0-288c212.064 0 384 171.936 384 384 0 86.496-28.736 168.672-80.64 235.456l-27.296 33.536a15283.072 15283.072 0 0 0-49.856-40.064l20.608-25.248A318.496 318.496 0 0 0 864 512c0-176.736-143.264-320-320-320S224 335.264 224 512c0 71.68 23.616 139.648 66.336 195.104l27.232 33.824-49.216 40.064-20.448-24.48A382.496 382.496 0 0 1 160 512C160 299.936 331.936 128 544 128z m0 160c123.84 0 224 102.016 224 227.584a229.12 229.12 0 0 1-45.088 136.96c-11.04 13.696-19.84 24.448-26.464 32.32-26.912-21.664-43.456-34.88-49.6-39.68l20.384-25.248A164.992 164.992 0 0 0 704 515.616C704 425.088 632.224 352 544 352s-160 73.12-160 163.584c0 38.72 13.12 75.232 36.8 104.384l20.8 25.216-50.176 39.68-20.32-24.576A228.992 228.992 0 0 1 320 515.584C320 390.016 420.16 288 544 288z m0 192a32 32 0 1 0 0 64 32 32 0 0 0 0-64z" /></svg>