<svg class="icon" width="200px" height="200.00px" viewBox="0 0 1024 1024" version="1.1" xmlns="http://www.w3.org/2000/svg"><path d="M661.344 224C826.24 224 960 352.96 960 512c0 155.616-128 282.4-288 287.808V800H250.656C147.584 800 64 719.424 64 620c0-70.72 42.272-131.872 103.776-161.312l326.4-185.376A305.088 305.088 0 0 1 661.312 224zM424 686.848l-2.016 4.704c-7.264 16.192-16.96 31.168-28.576 44.48H473.6a294.88 294.88 0 0 1-49.632-49.184zM250.656 512a112 112 0 1 0 0 224 112 112 0 0 0 0-224z m410.688-216c-123.712 0-224 96.704-224 216s100.288 216 224 216 224-96.704 224-216-100.288-216-224-216z m0 72c82.464 0 149.312 64.48 149.312 144s-66.848 144-149.312 144C578.848 656 512 591.52 512 512s66.88-144 149.344-144z m0 72c-41.248 0-74.688 32.224-74.688 72s33.44 72 74.688 72C702.56 584 736 551.776 736 512s-33.44-72-74.656-72zM249.44 576a48 48 0 1 1 0 96 48 48 0 0 1 0-96z m127.936-153.568a276.736 276.736 0 0 0-12.576 55.104 188.256 188.256 0 0 0-42.496-23.808z" /></svg>