<?xml version="1.0" standalone="no"?><!DOCTYPE svg PUBLIC "-//W3C//DTD SVG 1.1//EN" "http://www.w3.org/Graphics/SVG/1.1/DTD/svg11.dtd"><svg t="1629777060621" class="icon" viewBox="0 0 1061 1024" version="1.1" xmlns="http://www.w3.org/2000/svg" p-id="2463" xmlns:xlink="http://www.w3.org/1999/xlink" width="207.2265625" height="200"><defs><style type="text/css"></style></defs><path d="M379.676444 578.294519c19.949037 0 36.219259 16.459852 36.21926 36.598518 0 12.781037-5.423407 21.959111-14.449778 29.278815l28.178963 170.590815c3.602963 12.818963-4.854519 26.586074-9.064296 34.740148l-27.382519 51.958518a17.370074 17.370074 0 0 1-25.334518 0L339.816296 849.540741c-7.205926-14.032593-12.667259-21.921185-9.064296-34.740148l27.154963-170.590815c-9.02637-7.319704-14.487704-16.497778-14.487704-29.278815 0-20.100741 16.308148-36.598519 36.21926-36.598519zM383.81037 0c149.010963 0 270.904889 121.893926 270.904889 270.904889 0 108.35437-65.460148 203.169185-158.037333 246.063407 179.086222 46.383407 270.904889 207.68237 270.904889 363.444148 0 13.539556-8.533333 26.548148-24.310519 26.548149-15.815111 0-25.751704-13.008593-25.751703-26.548149 0-187.354074-157.88563-339.550815-345.27763-339.550814-112.867556 0-205.179259 51.503407-259.337482 130.503111-36.105481 51.958519-64.474074 136.836741-64.474074 209.047703 0 15.815111-10.24 23.36237-23.741629 23.362371-13.539556 0-24.651852-9.822815-24.651852-23.362371 0-142.222222 78.999704-320.549926 257.365333-370.232888a270.411852 270.411852 0 0 1-144.497778-239.312593C112.867556 121.931852 234.761481 0 383.81037 0zM383.051852 47.407407c-123.06963 0-223.762963 100.693333-223.762963 223.762963 0 123.06963 100.693333 223.762963 223.762963 223.762963 123.06963 0 223.762963-100.693333 223.762963-223.762963 0-123.06963-100.693333-223.762963-223.762963-223.762963z" fill="#333333" p-id="2464"></path><path d="M785.028741 966.693926a246.518519 246.518519 0 1 0 0-493.037037 246.518519 246.518519 0 0 0 0 493.037037z" fill="#ECF5F1" p-id="2465"></path><path d="M785.028741 452.79763a267.377778 267.377778 0 1 0 0 534.755555 267.377778 267.377778 0 0 0 0-534.755555z m0 41.718518a225.659259 225.659259 0 1 1 0 451.318519 225.659259 225.659259 0 0 1 0-451.318519z" fill="#333333" p-id="2466"></path><path d="M732.16 689.948444v-134.637037h-34.664296v187.960889c-8.912593 5.30963-20.48 11.567407-34.664297 18.659556v-168.011852h-32.009481v161.374815a34.133333 34.133333 0 0 1-12.022519 29.316741l18.697482 32.009481c4.437333-4.437333 10.619259-8.912593 18.659555-13.349926 0.872296 0 2.199704-0.872296 3.982223-2.654815 15.132444-8.874667 27.572148-15.54963 37.357037-19.986963v90.642963h34.664296v-181.323852z m103.992889 68.001186c-18.659556-25.78963-31.099259-63.563852-37.357037-113.322667v-1.365333h73.348741c-5.30963 48.014222-17.332148 86.243556-36.02963 114.688z m-103.992889-68.001186l0.83437 1.517037c0.986074 1.630815 2.503111 3.792593 4.47526 6.447408 7.130074 10.695111 12.439704 17.825185 16.00474 21.352296 2.654815-3.527111 6.219852-8.874667 10.657186-15.966815a120.604444 120.604444 0 0 0 10.695111-16.00474c7.964444 39.063704 20.859259 71.983407 38.684444 98.645333-19.569778 21.352296-45.814519 40.011852-78.696296 56.016593 7.964444 9.784889 15.54963 19.986963 22.679704 30.644148 31.971556-19.531852 58.216296-39.063704 78.65837-58.671408 20.442074 18.697481 47.104 37.357037 80.023704 56.016593 7.092148-10.657185 14.639407-21.769481 22.641777-33.336889-32.881778-12.439704-59.543704-29.316741-80.023703-50.669037 24.917333-36.408889 40.466963-84.005926 46.686814-142.677333h30.682075v-33.298963h-121.362963c4.475259-8.912593 9.784889-22.224593 16.00474-40.011852l4.020148-12.022519-36.029629-5.309629a419.688296 419.688296 0 0 1-66.635852 137.329777z" fill="#333333" p-id="2467"></path></svg>