<svg class="icon" width="200px" height="200.00px" viewBox="0 0 1024 1024" version="1.1" xmlns="http://www.w3.org/2000/svg"><path d="M416 695.68c53.024 0 96 44.8 96 100.16 0 55.296-42.976 100.16-96 100.16s-96-44.864-96-100.16c0-55.36 42.976-100.16 96-100.16z m288 0c53.024 0 96 44.8 96 100.16 0 55.296-42.976 100.16-96 100.16s-96-44.864-96-100.16c0-55.36 42.976-100.16 96-100.16z m-288 66.752c-17.664 0-32 14.944-32 33.408 0 18.432 14.336 33.376 32 33.376s32-14.944 32-33.376c0-18.464-14.336-33.408-32-33.408z m288 0c-17.664 0-32 14.944-32 33.408 0 18.432 14.336 33.376 32 33.376s32-14.944 32-33.376c0-18.464-14.336-33.408-32-33.408zM156.992 128c62.944 0 113.568 49.952 123.424 112.128L288 288h504.608a64 64 0 0 1 64 64c0 1.92-10.432 86.848-31.36 254.816a64 64 0 0 1-63.392 55.456H340.768a64 64 0 0 1-63.2-53.984L220.16 246.048a64 64 0 0 0-63.2-53.984H128V128h28.992z m635.2 226.784H298.56l41.824 240.704h421.76l30.016-240.704z" /></svg>