<svg class="icon" width="200px" height="200.00px" viewBox="0 0 1024 1024" version="1.1" xmlns="http://www.w3.org/2000/svg"><path d="M512 160a128 128 0 0 1 127.84 121.6L640 288v160h64v-96a64 64 0 0 1 64-64h32a64 64 0 0 1 64 64v256a64 64 0 0 1-64 64h-32a64 64 0 0 1-64-64v-96h-64a128.064 128.064 0 0 1-96 123.968v41.504a96.032 96.032 0 1 1-64 0v-41.504A128.064 128.064 0 0 1 384 512h-64v96a64 64 0 0 1-64 64H224a64 64 0 0 1-64-64v-256a64 64 0 0 1 64-64h32a64 64 0 0 1 64 64v96h64V288a128 128 0 0 1 128-128z m0 576a32 32 0 1 0 0 64 32 32 0 0 0 0-64z m288-384h-32v256h32v-256zM256 352H224v256h32v-256z m192 160a64 64 0 1 0 128 0h-128z m128-160h-128v96h128v-96z m-64-128a64 64 0 0 0-64 64h128a64 64 0 0 0-64-64z" /></svg>