<svg class="icon" width="200px" height="200.00px" viewBox="0 0 1024 1024" version="1.1" xmlns="http://www.w3.org/2000/svg"><path d="M768 128a64 64 0 0 1 64 64v640a64 64 0 0 1-64 64H256a64 64 0 0 1-64-64V192a64 64 0 0 1 64-64h512z m0 448H256v256h512v-256z m-405.408 64v160H320v-160h42.592z m102.464 0c14.464 0 26.784 3.936 36.384 12.288 9.92 8.8 14.912 21.056 14.912 35.552 0 9.696-2.432 18.624-7.776 27.008 0.896 0.928 1.728 1.856 2.56 2.88 6.912 8.384 10.368 18.88 10.368 30.976 0 17.44-6.4 31.616-19.104 40.96-9.888 6.944-22.656 10.336-37.696 10.336H395.84v-160h69.216z m124.608 0l36.608 88.512L662.72 640H704v160h-42.784v-46.816L641.952 800h-31.52l-19.264-46.816V800h-42.752v-160h41.248z m-126.176 99.328h-24.864v17.856h24.864c5.92 0 10.176-1.088 12.864-2.752 1.696-1.152 2.4-2.592 2.4-5.92 0-3.648-0.704-5.248-2.24-6.464-2.048-1.6-6.24-2.72-13.024-2.72z m-1.696-56.512h-23.168v13.856h22.976c5.536 0 9.088-1.024 10.592-2.24 1.024-0.896 1.568-2.176 1.568-5.12 0-2.816-0.384-3.776-1.12-4.352-1.472-1.216-4.96-2.144-10.88-2.144zM768 384H256v128h512v-128z m-384 32v64h-64v-64h64z m384-224H256v128h512V192zM384 224v64h-64V224h64z" /></svg>