<svg class="icon" width="200px" height="200.00px" viewBox="0 0 1024 1024" version="1.1" xmlns="http://www.w3.org/2000/svg"><path d="M512 128c212.064 0 384 171.936 384 384s-171.936 384-384 384S128 724.064 128 512 299.936 128 512 128z m0 64C335.264 192 192 335.264 192 512s143.264 320 320 320 320-143.264 320-320S688.736 192 512 192z m-107.584 160v319.872H352V352h52.416z m195.328 0c77.056 0 116.032 32.704 116.032 98.112 0 65.856-38.976 99.008-116.928 99.008h-79.296v122.752h-52.416V352h132.608z m-4.032 44.8h-76.16v107.52h76.16c23.296 0 40.32-4.48 51.072-12.544 10.752-8.512 16.128-22.4 16.128-41.664 0-19.264-5.824-32.704-16.576-40.768-10.752-8.512-27.776-12.544-50.624-12.544z" /></svg>