<svg class="icon" width="200px" height="200.00px" viewBox="0 0 1024 1024" version="1.1" xmlns="http://www.w3.org/2000/svg"><path d="M512 128c212.064 0 384 171.936 384 384s-171.936 384-384 384S128 724.064 128 512 299.936 128 512 128z m0 64C335.264 192 192 335.264 192 512s143.264 320 320 320 320-143.264 320-320S688.736 192 512 192z m-192 288v32a192 192 0 1 0 384 0v-32h64v32a256 256 0 1 1-512 0v-32h64z m224-160v133.472a96.032 96.032 0 1 1-64 0V320h64z m-32 192a32 32 0 1 0 0 64 32 32 0 0 0 0-64z" /></svg>