<?xml version="1.0" standalone="no"?><!DOCTYPE svg PUBLIC "-//W3C//DTD SVG 1.1//EN" "http://www.w3.org/Graphics/SVG/1.1/DTD/svg11.dtd"><svg class="icon" width="200px" height="200.00px" viewBox="0 0 1024 1024" version="1.1" xmlns="http://www.w3.org/2000/svg"><path d="M411.569231 811.323077c0 5.907692 1.969231 9.846154 1.969231 15.753846 0 64.984615-70.892308 118.153846-157.538462 118.153846s-157.538462-53.169231-157.538462-116.184615l3.938462-25.6C118.153846 750.276923 181.169231 708.923077 256 708.923077c21.661538 0 41.353846 3.938462 61.046154 9.846154l17.723077-57.107693c-23.630769-7.876923-51.2-11.815385-78.769231-11.815384-53.169231 0-102.4 15.753846-139.815385 43.323077l47.261539-374.153846c5.907692-47.261538 45.292308-82.707692 92.553846-82.707693 41.353846 0 76.8 25.6 88.615385 63.015385l55.138461-17.723077c-19.692308-63.015385-78.769231-104.369231-143.753846-104.369231-76.8 0-141.784615 57.107692-151.630769 133.907693L43.323077 793.6c-1.969231 11.815385-3.938462 21.661538-3.938462 33.476923 0 98.461538 96.492308 177.230769 216.615385 177.230769s216.615385-78.769231 216.615385-177.230769c0-7.876923 0-17.723077-1.969231-25.6l-59.076923 9.846154zM980.676923 793.6l-61.046154-482.461538C909.784615 234.338462 844.8 177.230769 768 177.230769c-64.984615 0-124.061538 41.353846-145.723077 104.369231l55.138462 17.723077c11.815385-37.415385 49.230769-63.015385 88.615384-63.015385 47.261538 0 86.646154 35.446154 92.553846 80.738462l47.261539 374.153846c-35.446154-25.6-84.676923-41.353846-137.846154-41.353846-27.569231 0-55.138462 3.938462-80.738462 11.815384l17.723077 57.107693c19.692308-5.907692 39.384615-9.846154 61.046154-9.846154 76.8 0 139.815385 41.353846 153.6 94.523077l3.938462 25.6c0 64.984615-70.892308 116.184615-157.538462 116.184615s-157.538462-53.169231-157.538461-118.153846c0-5.907692 0-9.846154 1.96923-15.753846l-59.076923-9.846154V827.076923c0 98.461538 96.492308 177.230769 216.615385 177.230769s216.615385-78.769231 216.615385-177.230769c0-11.815385-1.969231-21.661538-3.938462-33.476923z" fill="#4069FF" /><path d="M724.676923 636.061538L663.630769 153.6C653.784615 76.8 588.8 19.692308 512 19.692308s-141.784615 57.107692-151.630769 133.907692l-61.046154 482.461538c-1.969231 11.815385-3.938462 21.661538-3.938462 33.476924 0 98.461538 96.492308 177.230769 216.615385 177.230769s216.615385-78.769231 216.615385-177.230769c0-11.815385-1.969231-21.661538-3.938462-33.476924zM419.446154 159.507692C425.353846 114.215385 464.738462 78.769231 512 78.769231s86.646154 35.446154 92.553846 80.738461l47.261539 374.153846C614.4 508.061538 565.169231 492.307692 512 492.307692c-53.169231 0-102.4 15.753846-139.815385 43.323077l47.261539-376.123077zM512 787.692308c-86.646154 0-157.538462-53.169231-157.538462-116.184616l3.938462-25.6c15.753846-53.169231 78.769231-94.523077 153.6-94.523077 76.8 0 139.815385 41.353846 153.6 94.523077l3.938462 25.6c0 63.015385-70.892308 116.184615-157.538462 116.184616z" fill="#12B9FF" /><path d="M374.153846 669.538462a137.846154 98.461538 0 1 0 275.692308 0 137.846154 98.461538 0 1 0-275.692308 0Z" fill="#E6F3FF" /><path d="M287.507692 730.584615c-9.846154 0-19.692308-1.969231-31.507692-1.96923-76.8 0-137.846154 43.323077-137.846154 98.461538s61.046154 98.461538 137.846154 98.461539c70.892308 0 128-37.415385 135.876923-86.646154-49.230769-23.630769-86.646154-61.046154-104.369231-108.307693zM768 728.615385c-11.815385 0-21.661538 1.969231-31.507692 1.96923-17.723077 45.292308-55.138462 84.676923-104.369231 108.307693 7.876923 49.230769 66.953846 86.646154 135.876923 86.646154 76.8 0 137.846154-43.323077 137.846154-98.461539s-61.046154-98.461538-137.846154-98.461538z" fill="#E6F3FF" /></svg>