<svg class="icon" width="200px" height="200.00px" viewBox="0 0 1024 1024" version="1.1" xmlns="http://www.w3.org/2000/svg"><path d="M768 128a64 64 0 0 1 64 64v640a64 64 0 0 1-59.2 63.84L256 896a64 64 0 0 1-64-64V192a64 64 0 0 1 64-64h512z m0 576H256v128h512v-128z m-384 32v64H288v-64h96zM768 192H256v448h512V192zM410.976 262.624a32 32 0 0 1 0 45.248l-12.032 11.968h117.632l2.432 0.256h105.344l-12.256-12.224a32 32 0 0 1 42.24-47.904l70.912 70.528a32 32 0 0 1 2.656 42.24l-70.528 70.912a32 32 0 0 1-47.936-42.24l16.96-17.344H559.36L608.16 512h128.192v64h-150.4c-13.28 0-25.088-9.024-29.376-22.464l-45.92-113.568-43.232 113.6a31.584 31.584 0 0 1-25.792 22.208L288.128 576v-64h128l48.544-128.096h-68.16l14.464 14.496a32 32 0 1 1-45.28 45.248l-67.84-67.872a32 32 0 0 1 0-45.28l67.84-67.84a32 32 0 0 1 45.28 0z" /></svg>