<svg class="icon" width="200px" height="200.00px" viewBox="0 0 1024 1024" version="1.1" xmlns="http://www.w3.org/2000/svg"><path d="M896 672a64 64 0 0 1-59.2 63.84L798.816 736a112 112 0 0 1-221.696 0h-130.304a112 112 0 0 1-221.696 0L192 736a64 64 0 0 1-63.84-59.2L128 372.352a64 64 0 0 1 10.368-34.88l33.76-51.904a64 64 0 0 1 53.632-29.12H352V256a64 64 0 0 1 64-64h416a64 64 0 0 1 64 64v416z m-560 0a48 48 0 1 0 0 96 48 48 0 0 0 0-96z m352 0a48 48 0 1 0 0 96 48 48 0 0 0 0-96z m144-192H192v192h42.784a112 112 0 0 1 202.432 0h149.568a112 112 0 0 1 202.432 0H832v-192z m0-224H416v160h416V256z m-480 64.512H225.76L192 372.384V416h160v-95.488z" /></svg>