<svg class="icon" width="200px" height="200.00px" viewBox="0 0 1024 1024" version="1.1" xmlns="http://www.w3.org/2000/svg"><path d="M512 288a256 256 0 0 1 256 256v287.968L832 832v64H192v-64l64-0.032V544a256 256 0 0 1 256-256z m0 64a192 192 0 0 0-191.872 184.8L320 544l-0.032 288h384L704 544a192 192 0 0 0-192-192z m49.984 103.712l-38.4 129.824H617.6l-159.008 173.76 39.904-130.912h-91.36l154.88-172.672z m228.64-235.584l45.248 45.248-90.496 90.496-45.248-45.248 90.496-90.496z m-557.248 0l90.496 90.496-45.248 45.248L188.16 265.376l45.248-45.248zM544 128v128h-64V128h64z" /></svg>