<svg class="icon" width="200px" height="200.00px" viewBox="0 0 1024 1024" version="1.1" xmlns="http://www.w3.org/2000/svg"><path d="M841.408 193.824a176 176 0 0 1 0 248.896L637.76 646.4a175.904 175.904 0 0 1-168.16 46.08l6.528 74.208a32 32 0 0 1-6.656 22.464l-120.896 120.448a32 32 0 0 1-53.824-15.936l-12.8-143.424-139.424-12.16a32 32 0 0 1-19.904-54.432l117.44-118.24a32 32 0 0 1 25.472-9.312l76.48 6.72a176.064 176.064 0 0 1 46.848-165.312l203.648-203.648a176 176 0 0 1 248.896 0zM274.88 621.152l-58.688 59.104 77.44 6.72 59.392-58.976-78.144-6.848z m136.192 136.16l-6.816-78.176-59.04 59.488 6.72 77.376 59.136-58.688z m170.176-461.696l-147.104 147.104a112 112 0 0 0 153.92 162.624l151.552-151.296-158.368-158.4z m214.944-56.544a112 112 0 0 0-153.92-4.224l-15.744 15.52 158.368 158.4 11.296-11.296a112 112 0 0 0 0-158.4z" /></svg>