<svg class="icon" width="200px" height="200.00px" viewBox="0 0 1024 1024" version="1.1" xmlns="http://www.w3.org/2000/svg"><path d="M422.72 468.032l-136.544 136.544a96.48 96.48 0 0 0 132.352 140.352l140.672-140.48 45.472 45.504-136.544 136.544A160.8 160.8 0 0 1 235.84 564.16l141.376-141.6 45.504 45.504z m204.608-22.656l-181.952 181.952-45.472-45.504 181.92-181.92 45.504 45.472z m159.168-204.672a160.8 160.8 0 0 1 4.832 222.4l-141.28 141.472-45.472-45.472 136.448-136.448a96.48 96.48 0 0 0-132.32-140.352l-140.576 140.352-45.472-45.504 136.448-136.448a160.8 160.8 0 0 1 227.392 0z" /></svg>