<?xml version="1.0" standalone="no"?><!DOCTYPE svg PUBLIC "-//W3C//DTD SVG 1.1//EN" "http://www.w3.org/Graphics/SVG/1.1/DTD/svg11.dtd"><svg class="icon" width="200px" height="199.80px" viewBox="0 0 1025 1024" version="1.1" xmlns="http://www.w3.org/2000/svg"><path d="M925.874192 25.885949l-49.363904 0L147.489712 25.885949l-49.363904 0C43.945914 25.885949 0 69.229865 0 123.409759l0 54.781893 0 694.706643c0 54.179894 43.945914 98.125808 98.125808 98.125808l828.350382 0c54.179894 0 98.125808-43.945914 98.125808-98.125808L1024.601999 178.793651l0-54.781893C1024 69.229865 980.054086 25.885949 925.874192 25.885949zM960.188125 873.500294c0 18.661964-15.049971 34.313933-34.313933 34.313933L98.125808 907.814227c-18.661964 0-34.313933-15.049971-34.313933-34.313933L63.811875 178.793651l0-54.781893c0-18.661964 15.049971-34.313933 34.313933-34.313933l49.363904 0 729.622575 0 49.363904 0c18.661964 0 34.313933 15.049971 34.313933 34.313933l0 54.781893L960.790123 873.500294zM843.400353 581.530864c-30.70194-48.159906-90.299824-73.443857-151.101705-64.413874-10.835979 1.805996-21.671958 1.805996-32.507937 0-59.597884-9.631981-118.593768 14.447972-150.499706 62.607878-22.273956 33.109935-33.109935 63.209877-33.109935 87.891828 0 36.721928 103.543798 52.975897 199.86361 52.975897 67.423868 0 129.429747-7.825985 164.947678-21.069959 6.019988-2.407995 10.23398-7.825985 11.437978-13.845973 1.203998-6.621987-1.203998-13.243974-6.019988-17.457966-4.815991-4.213992-11.437978-5.417989-17.457966-3.009994-15.651969 6.019988-61.40388 19.263962-152.305703 19.263962-109.563786 0-153.5097-18.661964-162.539683-23.477954 1.805996-16.253968 11.437978-37.323927 27.089947-60.801881 24.079953-36.119929 68.627866-54.179894 113.777778-46.955908 14.447972 2.407995 29.497942 2.407995 43.945914 0.601999 46.353909-7.223986 91.503821 11.437978 114.981775 48.159906 10.835979 16.855967 18.059965 31.905938 22.273956 45.751911 1.805996 6.019988 7.223986 10.835979 13.243974 12.039976l0.601999 0c6.621987 1.203998 12.641975-0.601999 17.457966-5.417989 4.213992-4.815991 6.019988-10.835979 4.213992-16.855967C865.07231 620.058789 856.042328 601.396825 843.400353 581.530864zM675.442681 514.106996c69.831864 0 127.021752-57.189888 127.021752-127.021752s-57.189888-127.021752-127.021752-127.021752c-69.831864 0-127.021752 57.189888-127.021752 127.021752S605.610817 514.106996 675.442681 514.106996zM675.442681 296.78542c49.965902 0 90.299824 40.333921 90.299824 90.299824s-40.333921 90.299824-90.299824 90.299824-90.299824-40.333921-90.299824-90.299824S625.476778 296.78542 675.442681 296.78542zM374.443269 458.121105 182.405644 458.121105c-17.457966 0-31.905938 14.447972-31.905938 31.905938 0 17.457966 14.447972 31.905938 31.905938 31.905938l192.037625 0c17.457966 0 31.905938-14.447972 31.905938-31.905938C406.349206 472.569077 391.901235 458.121105 374.443269 458.121105zM374.443269 641.128748 182.405644 641.128748c-17.457966 0-31.905938 14.447972-31.905938 31.905938 0 17.457966 14.447972 31.905938 31.905938 31.905938l192.037625 0c17.457966 0 31.905938-14.447972 31.905938-31.905938C406.349206 654.974721 391.901235 641.128748 374.443269 641.128748zM374.443269 286.55144 182.405644 286.55144C164.947678 286.55144 150.499706 300.999412 150.499706 319.059377c0 17.457966 14.447972 31.905938 31.905938 31.905938l192.037625 0c17.457966 0 31.905938-14.447972 31.905938-31.905938C406.349206 300.999412 391.901235 286.55144 374.443269 286.55144z" /></svg>