<svg class="icon" width="200px" height="200.00px" viewBox="0 0 1024 1024" version="1.1" xmlns="http://www.w3.org/2000/svg"><path d="M800 128c17.664 0 32 14.4 32 32.224v449.472h-64V192.224L256 192.448V832h224v64H224c-17.664 0-32-14.4-32-32.224V160.224C192 142.4 206.336 128 224 128h576z m-184.832 448a135.392 135.392 0 0 1 135.2 135.616c0 21.44-4.96 41.696-13.76 59.712l78.592 78.624-45.248 45.248-74.464-74.464c-22.464 16.64-50.24 26.528-80.32 26.528A135.392 135.392 0 0 1 480 711.616 135.392 135.392 0 0 1 615.168 576z m0 64.224a71.264 71.264 0 0 0-71.136 71.392c0 39.456 31.84 71.392 71.136 71.392a71.264 71.264 0 0 0 71.168-71.36 71.264 71.264 0 0 0-71.168-71.424zM640 416v64H320v-64h320zM320 288h384v64H320V288z" /></svg>