<?xml version="1.0" standalone="no"?><!DOCTYPE svg PUBLIC "-//W3C//DTD SVG 1.1//EN" "http://www.w3.org/Graphics/SVG/1.1/DTD/svg11.dtd"><svg t="1619413624673" class="icon" viewBox="0 0 1024 1024" version="1.1" xmlns="http://www.w3.org/2000/svg" p-id="4467" xmlns:xlink="http://www.w3.org/1999/xlink" width="200" height="200"><defs><style type="text/css"></style></defs><path d="M843.61 810.87H180.73c-0.86 0-1.57-0.71-1.57-1.57v-75.49c0-0.86 0.71-1.57 1.57-1.57h662.88c0.86 0 1.57 0.71 1.57 1.57v75.49c0 0.86-0.71 1.57-1.57 1.57zM512.17 62.23c-138.45 0-251.73 113.28-251.73 251.73v363.75c0 3.01 0.34 5.93 0.45 8.91h502.56c0.11-2.98 0.45-5.91 0.45-8.91V313.96c0-138.45-113.28-251.73-251.73-251.73z m-17.92 517V430.07H360.12l164.19-197.72v126.03h139.92L494.25 579.23z" p-id="4468" fill="#d81e06"></path></svg>