<svg class="icon" width="200px" height="200.00px" viewBox="0 0 1024 1024" version="1.1" xmlns="http://www.w3.org/2000/svg"><path d="M288 896a32 32 0 0 1-31.776-28.256L256 797.824c-69.28-70.176-128-174.24-128-284.832C128 300.384 299.904 128 512 128s388.224 172.416 384 384.96c-2.144 108.224-50.976 201.504-128 275.328V864c0 15.136-11.296 29.6-28.16 32H288z m224-704C335.296 192 192 335.68 192 512.96 192 608 235.584 697.408 308.608 758.944a32 32 0 0 1 11.136 20.48L320 832h64v-64h64v64h32v-64h64v64h32v-64h64v64h64v-57.504c0-6.464 2.112-13.056 6.304-19.744 72.64-62.72 121.696-156 121.696-241.76C832 335.68 688.704 192 512 192z m-128 210.944a96 96 0 1 1 0 192 96 96 0 0 1 0-192z m256 0a96 96 0 1 1 0 192 96 96 0 0 1 0-192z m-256 64a32 32 0 1 0 0 64 32 32 0 0 0 0-64z m256 0a32 32 0 1 0 0 64 32 32 0 0 0 0-64z" /></svg>