<svg class="icon" width="200px" height="200.00px" viewBox="0 0 1024 1024" version="1.1" xmlns="http://www.w3.org/2000/svg"><path d="M221.536 223.84l226.784 204.864v369.28l126.08-76.16v-293.12l226.784-204.864H221.536z m162.048 227.968L181.28 271.168a63.36 63.36 0 0 1-4.672-90.112A64.768 64.768 0 0 1 224.448 160h575.104C835.136 160 864 188.576 864 223.808c0 18.112-7.808 35.392-21.44 47.488l-203.392 180.512v270.752c0 22.08-11.552 42.624-30.528 54.24l-126.656 77.632c-30.272 18.56-70.016 9.28-88.736-20.64a63.328 63.328 0 0 1-9.664-33.6V451.808z" /></svg>