<svg class="icon" width="200px" height="200.00px" viewBox="0 0 1024 1024" version="1.1" xmlns="http://www.w3.org/2000/svg"><path d="M261.504 512c-84.128 141.92-24.192 289.984 154.272 360.608-46.656-89.92-9.44-176.32-4.032-184.64 3.296 18.048 13.984 51.392 28.032 87.328 11.904 30.4 24.704 60.448 78.08 120.704 236.48-9.184 363.552-221.824 224.416-433.664 28.192 95.04-17.248 150.656-57.76 150.656-32.8 0-62.4-36.48-47.104-118.016C671.552 312.64 511.36 196.928 395.872 128c19.904 272.256-50.24 242.08-134.368 384z m312.992-28.8c-15.36 82.144 6.112 129.184 26.88 154.176a108.128 108.128 0 0 0 83.136 39.616c17.184 0 34.016-4 49.536-11.52a173.056 173.056 0 0 1-17.504 55.616c-30.144 58.56-92.96 97.92-171.2 108.416-30.24-37.376-37.92-56.96-45.984-77.568-14.048-35.84-22.624-64.192-24.64-75.36l-28.672-158.496-87.904 134.944c-7.52 11.52-22.208 44.608-27.68 89.152-16.096-17.664-27.904-36.96-34.88-57.376-14.88-43.456-7.616-91.936 20.96-140.16 20.48-34.56 39.84-57.312 58.56-79.36 47.68-56.064 80.832-101.856 87.04-214.464 92.928 75.04 128 149.056 112.352 232.384z" /></svg>