<svg class="icon" width="200px" height="200.00px" viewBox="0 0 1024 1024" version="1.1" xmlns="http://www.w3.org/2000/svg"><path d="M832 224a64 64 0 0 1 64 64v448a64 64 0 0 1-64 64H192a64 64 0 0 1-64-64V288a64 64 0 0 1 64-64h640z m0 64H192v448c0-72.32 40-135.296 99.04-168.032a128 128 0 1 1 185.92 0c56.8 31.488 98.944 95.68 98.944 168L832 736V288zM384 608c-68.544 0-128 59.424-128 128l256-0.032C512 667.424 452.544 608 384 608z m416-64v64h-128v-64h128z m-416-128a64 64 0 1 0 0 128 64 64 0 0 0 0-128z m416 0v64h-192v-64h192z" /></svg>