<svg class="icon" width="200px" height="200.00px" viewBox="0 0 1024 1024" version="1.1" xmlns="http://www.w3.org/2000/svg"><path d="M544 128v64h256a64 64 0 0 1 64 64v512a64 64 0 0 1-64 64h-256v64h-64v-64H224a64 64 0 0 1-64-64V256a64 64 0 0 1 64-64h256V128h64z m256 128h-256v64h-64V256H224v512h256v-64h64v64h96v-128h64v128h96V256zM384 608v128h-64v-128h64z m160 0v64h-64v-64h64z m160-64v64h-64v-64h64z m-160-96v128h-64v-128h64z m-160 64v64h-64v-64h64z m320-192v192h-64v-192h64zM384 288v192h-64V288h64z m160 64v64h-64v-64h64z" /></svg>