<svg class="icon" width="200px" height="200.00px" viewBox="0 0 1024 1024" version="1.1" xmlns="http://www.w3.org/2000/svg"><path d="M613.28 160v88.512l75.52 43.648 76.704-44.288 100.352 173.76-76.672 44.352v87.168l76.672 44.32-100.352 173.792-76.704-44.288-75.52 43.648v88.544h-200.672v-88.544l-75.52-43.648-76.736 44.288L160 597.472l76.736-44.32v-87.168L160 421.632l100.352-173.76 76.736 44.288 75.52-43.648V160h200.672z m-58.24 58.272h-84.16v66.336l-131.584 76.096-57.6-33.216-42.08 72.832 57.504 33.216V585.6l-57.504 33.216 42.08 72.832 57.6-33.248 131.584 76.096v66.432h84.16v-66.432l131.552-76.096 57.632 33.248 42.048-72.832-57.504-33.216v-152.064l57.504-33.216-42.048-72.832-57.632 33.216-131.552-76.096V218.272z m-42.112 131.328a160 160 0 1 1 0 320 160 160 0 0 1 0-320z m0 64c-52.928 0-96 43.072-96 96s43.072 96 96 96 96-43.072 96-96-43.072-96-96-96z" /></svg>