<?xml version="1.0" standalone="no"?><!DOCTYPE svg PUBLIC "-//W3C//DTD SVG 1.1//EN" "http://www.w3.org/Graphics/SVG/1.1/DTD/svg11.dtd"><svg t="1629777036979" class="icon" viewBox="0 0 1024 1024" version="1.1" xmlns="http://www.w3.org/2000/svg" p-id="1817" xmlns:xlink="http://www.w3.org/1999/xlink" width="200" height="200"><defs><style type="text/css"></style></defs><path d="M331.190857 629.504c0-19.382857 15.725714-35.291429 34.925714-35.291429 19.236571 0 34.925714 15.872 34.925715 35.291429 0 12.324571-5.229714 21.174857-13.933715 28.233143l27.172572 164.498286c3.474286 12.361143-4.681143 25.636571-8.740572 33.499428l-26.404571 50.102857a16.749714 16.749714 0 0 1-24.429714 0L327.68 855.771429c-6.948571-13.531429-12.214857-21.138286-8.740571-33.499429l26.185142-164.498286c-8.704-7.058286-13.970286-15.908571-13.970285-28.233143z" fill="#333333" p-id="1818"></path><path d="M370.066286 36.571429c143.689143 0 261.229714 117.540571 261.229714 261.229714 0 104.484571-63.122286 195.913143-152.393143 237.275428 172.690286 44.726857 261.229714 200.265143 261.229714 350.464 0 13.056-8.228571 25.6-23.442285 25.6-15.250286 0-24.832-12.544-24.832-25.6 0-180.662857-152.246857-327.424-332.946286-327.424-108.836571 0-197.851429 49.664-250.075429 125.842286-34.816 50.102857-62.171429 131.949714-62.171428 201.581714 0 15.250286-9.874286 22.528-22.893714 22.528-13.056 0-23.771429-9.472-23.771429-22.528 0-137.142857 76.178286-309.101714 248.173714-357.010285a260.754286 260.754286 0 0 1-139.337143-230.765715C108.836571 154.148571 226.377143 36.571429 370.102857 36.571429zM369.371429 82.285714c-118.674286 0-215.771429 97.097143-215.771429 215.771429 0 118.674286 97.097143 215.771429 215.771429 215.771428 118.674286 0 215.771429-97.097143 215.771428-215.771428 0-118.674286-97.097143-215.771429-215.771428-215.771429z" fill="#333333" p-id="1819"></path><path d="M756.992 968.740571a237.714286 237.714286 0 1 0 0-475.428571 237.714286 237.714286 0 0 0 0 475.428571z" fill="#ECF5F1" p-id="1820"></path><path d="M756.992 473.197714a257.828571 257.828571 0 1 0 0 515.657143 257.828571 257.828571 0 0 0 0-515.657143z m0 40.228572a217.6 217.6 0 1 1 0 435.2 217.6 217.6 0 0 1 0-435.2z" fill="#333333" p-id="1821"></path><path d="M660.992 878.006857c43.739429-13.714286 81.846857-28.708571 114.468571-44.982857 28.269714 16.274286 64.694857 30.427429 109.238858 42.422857 5.156571-10.276571 11.154286-21.869714 18.029714-34.742857-38.582857-5.961143-70.729143-15.396571-96.438857-28.269714 26.550857-20.553143 48.420571-47.981714 65.572571-82.285715v-28.269714h-156.891428c4.315429-11.995429 8.155429-23.588571 11.593142-34.742857h177.444572V636.342857h-169.691429c3.401143-10.276571 7.241143-25.270857 11.556572-44.982857l0.950857-4.900571 1.645714-8.228572 1.243429-6.180571-35.986286-2.56a531.2 531.2 0 0 1-15.433143 66.852571h-56.576c2.56-5.997714 6.838857-16.713143 12.836572-32.146286 2.56-8.557714 4.754286-14.555429 6.436571-17.993142l-33.426286-5.12c-8.557714 23.990857-15.835429 41.984-21.869714 53.979428v32.146286h83.602286c-18.029714 62.537143-50.139429 115.273143-96.438857 158.134857 5.12 13.714286 9.435429 25.709714 12.873142 35.986286a421.12 421.12 0 0 0 89.965715-115.712 228.242286 228.242286 0 0 0 50.176 66.852571c-27.428571 13.714286-61.293714 24.868571-101.595429 33.426286 5.12 8.594286 8.996571 15.872 11.593143 21.869714 2.56 4.278857 4.278857 7.716571 5.12 10.276572z m181.284571-241.700571l24.429715-24.429715a1380.681143 1380.681143 0 0 1-30.866286-23.149714l-20.553143-16.713143-20.589714 20.589715c16.310857 12.836571 32.182857 27.428571 47.579428 43.702857z m-66.852571 158.134857c-23.149714-18.834286-40.265143-39.862857-51.419429-62.976h106.715429c-11.995429 23.990857-30.427429 44.982857-55.296 62.976z" fill="#333333" p-id="1822"></path></svg>