<svg class="icon" width="200px" height="200.00px" viewBox="0 0 1024 1024" version="1.1" xmlns="http://www.w3.org/2000/svg"><path d="M439.488 128c172 0 311.456 139.296 311.456 311.104a309.44 309.44 0 0 1-55.84 177.824L896 820 851.936 864l-197.536-199.68a310.624 310.624 0 0 1-214.912 85.92C267.456 750.24 128 610.944 128 439.104 128 267.264 267.456 128 439.488 128z m0 62.208c-137.632 0-249.184 111.456-249.184 248.896 0 137.472 111.552 248.896 249.184 248.896 137.6 0 249.152-111.424 249.152-248.896 0-137.44-111.552-248.896-249.152-248.896z" /></svg>