<svg class="icon" width="200px" height="200.00px" viewBox="0 0 1024 1024" version="1.1" xmlns="http://www.w3.org/2000/svg"><path d="M512 128c212.064 0 384 171.936 384 384s-171.936 384-384 384S128 724.064 128 512 299.936 128 512 128z m-112.384 89.376l3.36 5.44c26.56 10.88 46.272 26.944 53.536 49.504 5.12 14.144 2.432 33.472-6.432 46.912-7.104 15.456-15.68 31.136-20.768 40-14.464 24.096-31.104 40.384-52.8 47.68-14.944 4.64-10.24 0.928-32 11.584-21.76 10.656-38.56 13.76-67.584 8.576-6.176-1.12-15.2 1.824-27.104 8.448-21.312 12.48-41.504 29.472-48.16 29.472-1.632 10.368-3.328 31.264-3.84 47.008 0 215.04 194.336 331.456 337.28 312.48a408.64 408.64 0 0 1 28.864-111.104c14.368-37.664 29.568-50.784 68.576-47.744 7.424 1.088 51.104-37.984 51.104-37.984-53.824-28.48-95.072-91.52-109.312-124.544l-50.4-27.424c-26.656-14.976-40-26.816-48-44.8-17.6-39.232-9.376-82.368 15.2-113.728 21.28-27.2 56.608-25.504 90.656-11.36 87.104 16.64 137.6 28.416 151.488 35.424 0.992 0.384 15.84-4.896 23.072-10.496-49.376-73.28-140.416-129.76-237.664-132.512a287.296 287.296 0 0 0-119.04 19.168z m144.128 143.84c-4.224 7.68-13.632 19.456-4.224 40.992 1.92 4.384 19.968 14.88 54.08 31.488 23.04 11.936 38.944 22.304 47.456 41.984 1.984 8.032 48.064 76.864 65.92 85.056 39.072 17.984 61.824 38.24 64.16 62.08 1.792 18.656-6.656 34.752-25.376 48.256-47.424 43.808-77.056 65.632-111.584 62.624-8.896 18.24-16.992 43.808-24.32 76.8 123.424-40.128 212.64-152.512 216.32-298.496 0-45.504-8.832-86.816-26.496-123.84-26.496 15.232-51.84 21.824-74.08 15.68-88-22.72-148.608-36.96-181.856-42.624z m-203.232-112.288c-35.648 23.36-82.784 63.712-112 127.424 0 0 28.032-13.792 50.368-11.008 15.136 2.304 25.216 2.496 30.304 0.512 21.856-10.944 37.216-17.056 46.016-18.336 14.272-1.792 30.304-43.2 36.96-54.624-9.984-6.176-35.872-10.976-51.648-43.968z" /></svg>