<svg class="icon" width="200px" height="200.00px" viewBox="0 0 1024 1024" version="1.1" xmlns="http://www.w3.org/2000/svg"><path d="M828.8 160c19.424 0 35.2 17.92 35.2 40v240c0 22.08-15.776 40-35.2 40H544v64h256a32 32 0 0 1 32 32v96h32a32 32 0 0 1 32 32v128a32 32 0 0 1-32 32h-128a32 32 0 0 1-32-32v-128a32 32 0 0 1 32-32h32v-64h-224v64h32a32 32 0 0 1 32 32v128a32 32 0 0 1-32 32h-128a32 32 0 0 1-32-32v-128a32 32 0 0 1 32-32h32v-64H256v64h32a32 32 0 0 1 32 32v128a32 32 0 0 1-32 32H160a32 32 0 0 1-32-32v-128a32 32 0 0 1 32-32h32v-96a32 32 0 0 1 32-32h256v-64H195.2c-19.424 0-35.2-17.92-35.2-40v-240C160 177.92 175.776 160 195.2 160h633.6zM192 800h64v-64H192v64z m288 0h64v-64h-64v64z m288 0h64v-64h-64v64zM288 352h64V288H288v64z m-64 64h576V224H224v192z m192-64h64V288h-64v64z m128 0h192V288h-192v64z" /></svg>