<svg class="icon" width="200px" height="200.00px" viewBox="0 0 1024 1024" version="1.1" xmlns="http://www.w3.org/2000/svg"><path d="M672.16 142.176c85.184 32.48 137.248 114.432 129.856 200.064 39.136 31.936 61.984 78.688 61.984 128.64C864 564.128 784.64 640 687.168 640L576 639.968v69.504a96.256 96.256 0 0 1 58.56 58.56L832 768v64h-197.472a96.032 96.032 0 0 1-181.056 0H256v-64h197.44A96.256 96.256 0 0 1 512 709.44V640h-111.136C303.328 640 224 564.16 224 470.912c0-49.664 22.656-96.32 61.504-128.256a144.544 144.544 0 0 1 21.312-82.624c29.696-48.48 84.064-76.384 141.504-73.984 58.24-55.744 146.112-73.376 223.84-43.84zM544 768a32 32 0 1 0 0 64 32 32 0 0 0 0-64zM484.64 240.48l-11.456 12.928a140.16 140.16 0 0 0-31.2-3.52c-30.752 0-64.032 16.48-80.576 43.488a80.672 80.672 0 0 0-10.56 57.824l4.224 21.344-18.304 11.776C306.24 403.968 288 436.32 288 470.88 288 528.864 338.624 576 400.864 576h286.304C749.376 576 800 528.864 800 470.88c0-34.88-18.496-67.36-49.472-86.976l-18.56-11.776 4.32-21.536c12.416-62.176-24.128-124.64-86.944-148.608-58.464-22.304-124.64-6.784-164.704 38.496z" /></svg>