<svg class="icon" width="200px" height="200.00px" viewBox="0 0 1024 1024" version="1.1" xmlns="http://www.w3.org/2000/svg"><path d="M480 160a64 64 0 0 1 64 64v160h64V288a64 64 0 0 1 64-64h160a64 64 0 0 1 64 64v224a64 64 0 0 1-64 64h-160a64 64 0 0 1-64-64v-64h-64v352a64 64 0 0 1-64 64H224a64 64 0 0 1-64-64V224a64 64 0 0 1 64-64h256z m0 64H224v576h256V224z m-64 448v64H288v-64h128zM832 288h-160v224h160V288zM352 288a96 96 0 1 1 0 192 96 96 0 0 1 0-192z m0 64a32 32 0 1 0 0 64 32 32 0 0 0 0-64z" /></svg>