<svg class="icon" width="200px" height="200.00px" viewBox="0 0 1024 1024" version="1.1" xmlns="http://www.w3.org/2000/svg"><path d="M128 256c0-33.728 25.664-61.376 58.208-63.84L470.816 192c19.296 0 37.44 8.992 49.28 24.256L567.296 288h265.824C867.84 288 896 316.64 896 352c0 3.296-32.64 146.848-97.856 430.656A63.136 63.136 0 0 1 736.928 832H190.88C156.16 832 128 803.36 128 768V256z m705.12 96H303.616L207.424 768h529.504l96.192-416z m-642.24 207.936l51.52-222.592A63.136 63.136 0 0 1 303.584 288h188.096l-20.896-32H190.88v303.936z" /></svg>