<svg class="icon" width="200px" height="200.00px" viewBox="0 0 1024 1024" version="1.1" xmlns="http://www.w3.org/2000/svg"><path d="M352 736h320v64H352v-64z m320 96v64H352v-64h320zM556.8 146.592l224.896 251.648c11.712 12.608 18.432 31.392 18.432 49.024 0 35.52-29.952 64.128-64 64.128H640l0.032 96c0 35.52-28.064 64-64 64h-128c-36.704 0-64-28.48-64-64v-96H288c-45.728 0-64-28.576-64-64.128 0-17.6 7.84-35.872 18.24-49.152l225.024-251.456c23.904-24.704 63.296-24.704 89.536-0.064z m-44.8 44.8l-224 256h160v160h127.936v-160H736l-224-256z" /></svg>