<svg class="icon" width="200px" height="200.00px" viewBox="0 0 1024 1024" version="1.1" xmlns="http://www.w3.org/2000/svg"><path d="M448 735.936a90.432 90.432 0 0 1 128 0L512 800z m234.72-106.88l-42.656 42.752c-69.12-69.184-183.872-72-256 0l-42.688-42.72a240.896 240.896 0 0 1 341.344 0z m106.624-106.688l-42.688 42.72c-127.52-127.68-329.6-133.216-469.312 0l-42.688-42.72a391.616 391.616 0 0 1 554.688 0zM896 415.52l-42.656 42.72c-186.272-186.496-485.44-186.496-682.688 0L128 415.52c209.728-209.984 553.184-215.392 768 0z" /></svg>