<svg class="icon" width="200px" height="200.00px" viewBox="0 0 1024 1024" version="1.1" xmlns="http://www.w3.org/2000/svg"><path d="M768 128a64 64 0 0 1 64 64v640a64 64 0 0 1-64 64H256a64 64 0 0 1-64-64V192a64 64 0 0 1 64-64h512zM256 576v256h512v-256H256z m91.84 61.76l13.408 51.04 13.888-51.04h38.72l13.76 50.88 13.312-50.88h48.32l-41.984 146.24h-38.848l-13.984-51.36-14.08 51.36h-38.816l-41.984-146.24h48.32z m209.44 0v146.24H512.32v-146.24h44.96z m77.152 0l40.768 58.624V637.76h45.12v146.24h-37.824l-41.056-59.36V784h-45.12v-146.24h38.112zM384 416v64h-64v-64h64z m384-224H256v128h512V192zM384 224v64h-64V224h64z m-128 288h512v-128H256v128z" /></svg>