<svg class="icon" width="200px" height="200.00px" viewBox="0 0 1024 1024" version="1.1" xmlns="http://www.w3.org/2000/svg"><path d="M512 128c212.064 0 384 171.936 384 384s-171.936 384-384 384S128 724.064 128 512 299.936 128 512 128z m-5.024 480c-90.72 0-172.48 53.6-214.4 136.928A318.848 318.848 0 0 0 512 832a318.784 318.784 0 0 0 212.448-80.672C683.744 664.64 600.224 608 506.976 608zM512 192C335.264 192 192 335.264 192 512c0 67.232 20.736 129.632 56.16 181.12 41.92-68.928 107.328-118.88 182.912-139.136a160 160 0 1 1 158.592 1.92c75.616 22.208 140.32 74.304 180.672 144.96A318.432 318.432 0 0 0 832 512c0-176.736-143.264-320-320-320z m0 128a96 96 0 1 0 0 192 96 96 0 0 0 0-192z" /></svg>