<svg class="icon" width="200px" height="200.00px" viewBox="0 0 1024 1024" version="1.1" xmlns="http://www.w3.org/2000/svg"><path d="M544 416v320h160a64 64 0 0 1 64 64v32a64 64 0 0 1-64 64H320a64 64 0 0 1-64-64v-32a64 64 0 0 1 64-64h160V416h64z m160 384H320v32h384v-32zM512 128c176.736 0 320 143.264 320 320 0 94.56-41.312 182.4-111.424 242.688l-7.904 6.592-40.16-49.856a256 256 0 1 0-328.16-5.984l7.04 5.952-40.16 49.792A319.392 319.392 0 0 1 192 448C192 271.264 335.264 128 512 128z m0 128a192 192 0 0 1 136.416 327.104l-6.4 6.144-43.328-47.04A128 128 0 1 0 384 448c0 33.728 18.176 70.272 41.088 93.952l-43.456 46.976A192 192 0 0 1 512 256z" /></svg>