<svg class="icon" width="200px" height="200.00px" viewBox="0 0 1024 1024" version="1.1" xmlns="http://www.w3.org/2000/svg"><path d="M704 128v64h-96v65.6c161.696 16.032 288 152.48 288 318.4 0 176.736-143.264 320-320 320-88.384 0-167.68-36.064-227.52-98.368l42.88-46.272C439.456 802.432 504.384 832 576 832a256 256 0 1 0-184.64-433.344l-42.88-47.68A318.976 318.976 0 0 1 544 257.6V192h-96V128h256z m-256 512v64H256v-64h192z m160-224v138.336l139.872 55.968-23.744 59.392L544 597.664V416h64z m-160 128v64H192v-64h256z m0-96v64H128v-64h320z" /></svg>