<svg class="icon" width="200px" height="200.00px" viewBox="0 0 1024 1024" version="1.1" xmlns="http://www.w3.org/2000/svg"><path d="M704 544H320v64h32a64 64 0 0 1 64 64v128a64 64 0 0 1-64 64H224a64 64 0 0 1-64-64v-128a64 64 0 0 1 64-64h32v-64a64 64 0 0 1 64-64l160-0.032V416h-32a64 64 0 0 1-64-64V224a64 64 0 0 1 64-64h128a64 64 0 0 1 64 64v128a64 64 0 0 1-64 64h-32v64h160a64 64 0 0 1 64 64v64h32a64 64 0 0 1 64 64v128a64 64 0 0 1-64 64h-128a64 64 0 0 1-64-64v-128a64 64 0 0 1 64-64h32v-64z m-352 128H224v128h128v-128z m448 0h-128v128h128v-128zM576 224h-128v128h128V224z" /></svg>