<?xml version="1.0" standalone="no"?><!DOCTYPE svg PUBLIC "-//W3C//DTD SVG 1.1//EN" "http://www.w3.org/Graphics/SVG/1.1/DTD/svg11.dtd"><svg t="1598861446923" class="icon" viewBox="0 0 1024 1024" version="1.1" xmlns="http://www.w3.org/2000/svg" p-id="2841" xmlns:xlink="http://www.w3.org/1999/xlink" width="200" height="200"><defs><style type="text/css"></style></defs><path d="M690.9952 782.5408a83.5584 83.5584 0 0 1-83.3536-83.3536v-0.2048c0-45.8752 37.4784-83.3536 83.3536-83.3536s83.3536 37.4784 83.3536 83.3536c0 46.08-37.4784 83.5584-83.3536 83.5584z m0-125.952c-23.3472 0-42.3936 19.0464-42.3936 42.3936v0.2048c0 23.3472 19.0464 42.3936 42.3936 42.3936s42.3936-19.0464 42.3936-42.3936c0-23.7568-19.0464-42.5984-42.3936-42.5984z" p-id="2842"></path><path d="M629.9648 904.3968c-6.144 0-12.0832-1.024-18.0224-3.4816-2.6624-1.024-5.3248-2.2528-7.9872-3.2768-16.9984-7.5776-28.2624-23.7568-30.1056-43.2128-0.8192-10.0352-5.12-19.0464-12.0832-26.0096s-15.9744-11.264-26.0096-12.0832c-19.6608-1.8432-35.6352-13.1072-43.008-30.1056-1.2288-2.8672-2.4576-5.7344-3.4816-8.6016-6.5536-17.2032-3.072-36.4544 9.216-51.4048 6.3488-7.5776 9.6256-16.9984 9.6256-26.8288 0-10.0352-3.2768-19.2512-9.6256-26.8288-12.4928-15.1552-15.9744-34.4064-9.216-51.8144 1.024-2.8672 2.2528-5.7344 3.4816-8.3968 7.3728-16.9984 23.552-28.2624 43.008-30.1056 9.8304-0.8192 18.8416-5.12 26.0096-12.0832 7.168-7.168 11.264-16.1792 12.0832-26.0096 1.8432-19.6608 13.1072-35.84 30.1056-43.4176 2.6624-1.2288 5.3248-2.2528 7.9872-3.2768 17.408-6.7584 36.864-3.2768 52.0192 9.4208 15.36 12.9024 38.7072 12.9024 54.272 0 14.9504-12.4928 34.816-15.9744 52.0192-9.4208 2.6624 1.024 5.3248 2.048 7.9872 3.2768 16.9984 7.3728 28.2624 23.7568 29.9008 43.4176 0.8192 10.0352 5.12 19.0464 12.288 26.0096 6.9632 6.9632 15.9744 11.264 26.0096 12.0832 19.456 1.8432 35.6352 13.1072 43.008 30.1056 1.2288 2.6624 2.4576 5.5296 3.4816 8.3968 6.7584 17.408 3.2768 36.6592-9.216 51.6096-6.3488 7.5776-9.6256 16.9984-9.6256 26.8288s3.2768 19.2512 9.6256 26.8288c12.4928 14.9504 15.9744 34.2016 9.216 51.4048-1.024 2.8672-2.2528 5.7344-3.4816 8.6016-7.3728 17.2032-23.552 28.4672-43.2128 30.3104a41.71776 41.71776 0 0 0-38.0928 38.2976c-1.6384 19.456-12.9024 35.6352-29.9008 43.2128-2.6624 1.2288-5.3248 2.2528-7.9872 3.2768-17.2032 6.7584-37.0688 3.2768-52.0192-9.4208-15.36-12.9024-38.912-12.9024-54.272 0-10.24 8.3968-22.1184 12.6976-33.9968 12.6976z m61.0304-63.488c19.456 0 38.5024 6.9632 53.4528 19.456 1.2288 1.024 5.9392 4.3008 10.6496 2.6624 2.2528-0.8192 4.3008-1.8432 6.3488-2.6624 4.7104-2.048 5.5296-7.7824 5.7344-9.4208 1.6384-19.456 10.24-37.6832 23.9616-51.4048 13.7216-13.7216 31.9488-22.3232 51.2-23.9616 2.048-0.2048 7.3728-1.2288 9.216-5.7344 1.024-2.2528 1.8432-4.5056 2.8672-6.9632 1.8432-4.7104-1.2288-9.0112-2.4576-10.6496-12.288-14.9504-19.0464-33.5872-19.0464-53.0432s6.7584-38.0928 19.2512-53.0432c1.4336-1.6384 4.3008-5.9392 2.6624-10.8544-0.8192-2.2528-1.8432-4.5056-2.8672-6.7584-2.048-4.7104-7.5776-5.5296-9.216-5.7344a83.7632 83.7632 0 0 1-51.2-23.9616 83.18976 83.18976 0 0 1-23.9616-51.4048c-0.2048-1.6384-1.024-7.3728-5.7344-9.4208-2.2528-1.024-4.3008-1.8432-6.3488-2.6624-4.7104-1.8432-9.4208 1.4336-10.6496 2.6624-29.9008 24.9856-76.8 24.9856-106.7008 0-1.6384-1.4336-6.144-4.5056-10.6496-2.6624-2.2528 0.8192-4.3008 1.6384-6.3488 2.6624-4.7104 2.048-5.5296 7.7824-5.7344 9.4208-1.6384 19.456-10.24 37.6832-23.9616 51.4048-13.7216 13.7216-31.744 22.1184-51.2 23.9616-2.2528 0.2048-7.3728 1.024-9.216 5.7344-1.024 2.2528-1.8432 4.5056-2.8672 6.9632-1.8432 4.7104 1.2288 9.0112 2.6624 10.6496 12.288 14.9504 19.0464 33.792 19.0464 53.0432s-6.7584 38.0928-19.0464 53.0432c-1.4336 1.6384-4.3008 5.9392-2.4576 10.6496 0.8192 2.4576 1.8432 4.7104 2.8672 6.9632 1.8432 4.5056 7.168 5.3248 9.216 5.5296 19.2512 1.8432 37.4784 10.24 51.2 23.9616 13.7216 13.7216 22.3232 31.9488 23.9616 51.4048 0.2048 1.6384 1.024 7.3728 5.7344 9.4208 2.048 0.8192 4.3008 1.8432 6.5536 2.6624 4.7104 1.8432 9.4208-1.6384 10.6496-2.6624 13.9264-12.4928 32.9728-19.2512 52.4288-19.2512z" p-id="2843"></path><path d="M404.48 720.0768h-204.8c-45.2608 0-81.92-36.6592-81.92-81.92v-389.12c0-45.2608 36.6592-81.92 81.92-81.92h614.4c45.2608 0 81.92 36.6592 81.92 81.92v194.56c0 11.264-9.216 20.48-20.48 20.48s-20.48-9.216-20.48-20.48v-194.56c0-22.528-18.432-40.96-40.96-40.96h-614.4c-22.528 0-40.96 18.432-40.96 40.96v389.12c0 22.528 18.432 40.96 40.96 40.96h204.8c11.264 0 20.48 9.216 20.48 20.48s-9.216 20.48-20.48 20.48zM465.92 904.3968h-245.76c-11.264 0-20.48-9.216-20.48-20.48s9.216-20.48 20.48-20.48h245.76c11.264 0 20.48 9.216 20.48 20.48s-9.216 20.48-20.48 20.48z" p-id="2844"></path></svg>