<svg class="icon" width="200px" height="200.00px" viewBox="0 0 1024 1024" version="1.1" xmlns="http://www.w3.org/2000/svg"><path d="M800 160a64 64 0 0 1 64 64v576a64 64 0 0 1-64 64H224a64 64 0 0 1-64-64V224a64 64 0 0 1 64-64h576zM320 224H224v576h96v-293.44a96.032 96.032 0 0 1 0-181.12V224z m160 0h-96v101.472a96.032 96.032 0 0 1 0 181.056V800h96v-69.44a96.032 96.032 0 0 1 0-181.12V224z m160 0h-96v325.472a96.032 96.032 0 0 1 0 181.056V800h96v-293.44a96.032 96.032 0 0 1 0-181.12V224z m160 0h-96v101.472a96.032 96.032 0 0 1 0 181.056V800h96V224z m-288 384a32 32 0 1 0 0 64 32 32 0 0 0 0-64z m-160-224a32 32 0 1 0 0 64 32 32 0 0 0 0-64z m320 0a32 32 0 1 0 0 64 32 32 0 0 0 0-64z" /></svg>