<svg class="icon" width="200px" height="200.00px" viewBox="0 0 1024 1024" version="1.1" xmlns="http://www.w3.org/2000/svg"><path d="M512 224c86.784 0 167.072 27.008 232.384 72.832l80.576-60.736 38.528 51.104-68.608 51.712A380.576 380.576 0 0 1 896 512c-44 165.632-199.264 288-384 288-86.784 0-167.072-27.008-232.384-72.832L199.04 787.904l-38.528-51.104 68.608-51.712A380.576 380.576 0 0 1 128 512c44-165.632 199.264-288 384-288z m144.512 219.2a160 160 0 0 1-250.432 188.704l-72.128 54.368A341.12 341.12 0 0 0 512 736c147.008 0 274.464-92.544 317.28-224-15.68-48.128-45.472-93.536-86.144-134.08l-86.624 65.28zM512 288c-147.008 0-274.464 92.544-317.28 224a317.504 317.504 0 0 0 86.144 134.08l86.624-65.28a160 160 0 0 1 250.432-188.704l72.128-54.368A341.12 341.12 0 0 0 512 288z m-53.024 304.032A96 96 0 0 0 608 512c0-7.552-2.016-20.672-4.448-28.928L458.976 592zM512 416a96 96 0 0 0-91.552 124.928l144.576-108.96A95.552 95.552 0 0 0 512 416z" /></svg>