<svg class="icon" width="200px" height="200.00px" viewBox="0 0 1024 1024" version="1.1" xmlns="http://www.w3.org/2000/svg"><path d="M928 626.272C928 740.032 834.176 832 718.784 832H305.216C189.824 832 96 740.032 96 626.272a204.64 204.64 0 0 1 91.648-170.176 173.76 173.76 0 0 1 21.184-121.088c37.696-64 110.912-97.024 182.816-86.112 69.536-81.472 185.984-111.584 288.96-70.816 113.376 44.896 176.64 162.016 154.464 277.152A204.672 204.672 0 0 1 928 626.272z m-64 0c0-53.984-31.232-102.624-79.904-126.592l-24.384-12 7.904-26.016c27.648-90.816-19.84-188.16-110.56-224.064-82.4-32.64-176.32-4.8-226.496 65.344l-13.024 18.208-21.568-6.016c-50.752-14.08-105.408 7.232-132 52.352a109.856 109.856 0 0 0-8.96 93.184l9.536 26.688-25.344 12.672C190.912 524.16 160 572.544 160 626.272 160 704.384 224.864 768 305.216 768h413.568C799.104 768 864 704.384 864 626.272z" /></svg>