<svg class="icon" width="200px" height="200.00px" viewBox="0 0 1024 1024" version="1.1" xmlns="http://www.w3.org/2000/svg"><path d="M96 480h65.44A352.096 352.096 0 0 1 480 161.408V96h64v65.44A352.096 352.096 0 0 1 862.592 480H928v64h-65.44a352.096 352.096 0 0 1-318.528 318.56L544 928h-64v-65.44A352.096 352.096 0 0 1 161.408 544H96v-64z m128-0.224h30.4v64.416H224A289.888 289.888 0 0 0 479.808 800v-30.4h64.384V800A289.92 289.92 0 0 0 800 544.224h-30.4v-64.416H800A289.92 289.92 0 0 0 544.224 224v30.4h-64.416V224A289.92 289.92 0 0 0 224 479.776zM320 512a192 192 0 1 1 384 0 192 192 0 0 1-384 0z m64 0a128 128 0 1 0 256 0 128 128 0 0 0-256 0z" /></svg>