<svg class="icon" width="200px" height="200.00px" viewBox="0 0 1024 1024" version="1.1" xmlns="http://www.w3.org/2000/svg"><path d="M512 128a279.36 279.36 0 0 1 271.104 212 139.68 139.68 0 0 1 8.16 272.32v178.944a34.88 34.88 0 0 1-34.88 34.912h-34.944v66.912h-69.792v-66.88h-279.296v66.88H302.56v-66.88H267.648a34.88 34.88 0 0 1-34.912-34.944v-178.944a139.68 139.68 0 0 1 8.16-272.32A279.36 279.36 0 0 1 512 128z m244.352 279.264a69.824 69.824 0 0 0-69.792 69.824v244.352h-349.12V477.12a69.824 69.824 0 1 0-87.296 67.616l52.416 13.504v198.144h418.88v-198.144l52.416-13.504a69.888 69.888 0 0 0-17.504-137.44z m-139.648 209.44h-209.44v34.944h209.472l-0.032-34.944zM512 197.824a209.536 209.536 0 0 0-199.936 146.88 139.68 139.68 0 0 1 95.2 132.384v69.792h209.44v-69.76a139.712 139.712 0 0 1 95.232-132.448 209.536 209.536 0 0 0-192.416-146.72L512 197.824z" /></svg>