<svg class="icon" width="200px" height="200.00px" viewBox="0 0 1024 1024" version="1.1" xmlns="http://www.w3.org/2000/svg"><path d="M607.776 696.704a32 32 0 0 1 31.808 28.256L639.776 864a32 32 0 0 1-63.776 3.744l-0.224-139.04a32 32 0 0 1 32-32z m-96-312.704c69.024 0 124.544 57.056 127.84 127.808l0.16 96.832a32 32 0 0 1-63.776 3.744l-0.224-93.888c0-39.36-29.12-70.496-64-70.496-26.08 0-49.664 17.536-59.424 44.32-2.368 6.432-3.84 13.28-4.352 20.32L447.776 864a32 32 0 0 1-63.776 3.744l-0.224-349.248a139.776 139.776 0 0 1 8.416-48.096c18.752-51.392 65.824-86.4 119.584-86.4z m0-128c138.72 0 251.68 110.048 255.872 247.424l0.128 7.968V800a32 32 0 0 1-63.776 3.744l-0.224-292.352c0-105.696-85.92-191.392-192-191.392a192.32 192.32 0 0 0-61.28 9.92 32 32 0 0 1-20.352-60.64A256.32 256.32 0 0 1 511.776 256z m-152.128 88.352a32 32 0 0 1 4.16 45.088 189.632 189.632 0 0 0-43.424 106.56l-0.448 7.68L319.776 800A32 32 0 0 1 256 803.744l-0.224-292.352a253.632 253.632 0 0 1 58.784-162.848 32 32 0 0 1 45.088-4.16zM163.424 453.44a32 32 0 0 1 29.376 34.4L191.776 736A32 32 0 0 1 128 739.744c0.128-164.48 0.448-250.112 0.992-256.96a32 32 0 0 1 27.04-29.12l7.36-0.224z m683.392-128.672a384.96 384.96 0 0 1 48.896 175.552L895.936 736a32 32 0 0 1-63.776 3.744l-0.224-226.048c0-56.064-14.24-109.92-40.96-157.632a32 32 0 1 1 55.84-31.296zM511.776 128c94.4 0 183.584 34.368 253.12 95.616A32 32 0 0 1 722.56 271.68 317.632 317.632 0 0 0 511.776 192a319.904 319.904 0 0 0-290.24 186.016 32 32 0 1 1-58.048-26.88A383.904 383.904 0 0 1 511.776 128z" /></svg>