<svg class="icon" width="200px" height="200.00px" viewBox="0 0 1024 1024" version="1.1" xmlns="http://www.w3.org/2000/svg"><path d="M384 234.666667v213.333333H170.666667V234.666667h213.333333m42.666667-64H128a21.333333 21.333333 0 0 0-21.333333 21.333333v298.666667a21.333333 21.333333 0 0 0 21.333333 21.333333h298.666667a21.333333 21.333333 0 0 0 21.333333-21.333333V192a21.333333 21.333333 0 0 0-21.333333-21.333333zM384 640v213.333333H170.666667V640h213.333333m42.666667-64H128a21.333333 21.333333 0 0 0-21.333333 21.333333v298.666667a21.333333 21.333333 0 0 0 21.333333 21.333333h298.666667a21.333333 21.333333 0 0 0 21.333333-21.333333V597.333333a21.333333 21.333333 0 0 0-21.333333-21.333333zM789.333333 640v213.333333H576V640h213.333333m42.666667-64H533.333333a21.333333 21.333333 0 0 0-21.333333 21.333333v298.666667a21.333333 21.333333 0 0 0 21.333333 21.333333h298.666667a21.333333 21.333333 0 0 0 21.333333-21.333333V597.333333a21.333333 21.333333 0 0 0-21.333333-21.333333zM682.666667 190.506667L833.493333 341.333333 682.666667 492.16 531.84 341.333333 682.666667 190.506667m0-81.706667a21.333333 21.333333 0 0 0-15.146667 6.186667l-211.2 211.2a21.333333 21.333333 0 0 0 0 30.08l211.2 211.2a21.333333 21.333333 0 0 0 30.08 0l211.2-211.2a21.333333 21.333333 0 0 0 0-30.08l-211.2-211.2a21.333333 21.333333 0 0 0-14.933333-6.186667z"  /></svg>