<svg class="icon" width="200px" height="200.00px" viewBox="0 0 1024 1024" version="1.1" xmlns="http://www.w3.org/2000/svg"><path d="M750.016 160a64 64 0 0 1 62.08 48.48L896 544v256a64 64 0 0 1-64 64H192a64 64 0 0 1-64-64v-256L211.872 208.48A64 64 0 0 1 273.952 160h476.064zM832 800v-192h-173.312a160.032 160.032 0 0 1-293.344 0.032L192 608v192h640zM750.016 224H273.984L193.92 544H416a96 96 0 0 0 96 96c51.136 0 96-42.976 96-96h222.016l-80-320zM736 416v64H288v-64h448z m-32-128v64H320V288h384z" /></svg>